<svg width="28" height="28" viewBox="0 0 28 28" fill="none" xmlns="http://www.w3.org/2000/svg">
<circle cx="14" cy="14" r="13.5" fill="white" stroke="#E3E3E3"/>
<rect x="6.28485" y="10.1426" width="15.4286" height="10.2857" rx="2" fill="#AAAAAA"/>
<circle cx="13.9991" cy="15.2855" r="3.21429" fill="white"/>
<circle cx="13.9991" cy="15.2855" r="1.92857" fill="#AAAAAA"/>
<path d="M10.1605 8.72544C10.4891 8.02129 11.1958 7.57121 11.9729 7.57121H16.0254C16.8025 7.57121 17.5092 8.02129 17.8378 8.72544L18.4991 10.1426H9.49915L10.1605 8.72544Z" fill="#AAAAAA"/>
<path d="M12.7134 10.1426C12.7134 9.7876 13.0013 9.49979 13.3563 9.49979H14.642C14.9971 9.49979 15.2849 9.7876 15.2849 10.1426V10.1426C15.2849 10.4977 14.9971 10.7855 14.642 10.7855H13.3563C13.0013 10.7855 12.7134 10.4977 12.7134 10.1426V10.1426Z" fill="white"/>
</svg>
