<svg width="28" height="28" viewBox="0 0 28 28" fill="none" xmlns="http://www.w3.org/2000/svg">
<path d="M9 3.75V14L8.35338 12.7527C8.0429 12.1537 7.42453 11.7778 6.74993 11.7778C5.45047 11.7778 4.57623 13.1089 5.09247 14.3014L8.13417 21.3277C9.36202 24.1641 12.1574 26 15.2481 26C19.5294 26 23 22.5294 23 18.2481V10.75C23 9.7835 22.2165 9 21.25 9C20.2835 9 19.5 9.7835 19.5 10.75V9.25C19.5 8.2835 18.7165 7.5 17.75 7.5C16.7835 7.5 16 8.2835 16 9.25V7.25C16 6.2835 15.2165 5.5 14.25 5.5C13.2835 5.5 12.5 6.2835 12.5 7.25V3.75C12.5 2.7835 11.7165 2 10.75 2C9.7835 2 9 2.7835 9 3.75Z" fill="#FFC441"/>
<mask id="mask0_4461_11637" style="mask-type:alpha" maskUnits="userSpaceOnUse" x="4" y="2" width="19" height="24">
<path d="M9 3.75V14L8.35338 12.7527C8.0429 12.1537 7.42453 11.7778 6.74993 11.7778C5.45047 11.7778 4.57623 13.1089 5.09247 14.3014L8.13417 21.3277C9.36202 24.1641 12.1574 26 15.2481 26C19.5294 26 23 22.5294 23 18.2481V10.75C23 9.7835 22.2165 9 21.25 9C20.2835 9 19.5 9.7835 19.5 10.75V9.25C19.5 8.2835 18.7165 7.5 17.75 7.5C16.7835 7.5 16 8.2835 16 9.25V7.25C16 6.2835 15.2165 5.5 14.25 5.5C13.2835 5.5 12.5 6.2835 12.5 7.25V3.75C12.5 2.7835 11.7165 2 10.75 2C9.7835 2 9 2.7835 9 3.75Z" fill="#FFC441"/>
</mask>
<g mask="url(#mask0_4461_11637)">
<path d="M9.5 15V2M13 14V5.5M16.5 12.7778V7.5M20 15V9" stroke="#EAA200" stroke-linecap="round" stroke-linejoin="round"/>
</g>
</svg>
