<svg width="28" height="28" viewBox="0 0 28 28" fill="none" xmlns="http://www.w3.org/2000/svg">
<mask id="mask0_4769_12333" style="mask-type:alpha" maskUnits="userSpaceOnUse" x="0" y="0" width="28" height="28">
<rect width="28" height="28" fill="#D9D9D9"/>
</mask>
<g mask="url(#mask0_4769_12333)">
<path d="M7.77425 8.06683L8.42136 10.4819C8.20695 9.68168 7.38445 9.20681 6.58425 9.42122C5.78405 9.63564 5.30917 10.4581 5.52359 11.2583L7.83349 19.879C8.84483 23.6534 12.7244 25.8933 16.4988 24.8819C19.3577 24.1159 21.4377 21.6514 21.7123 18.7044L22.4709 10.5659C22.5408 9.81633 22.0669 9.12326 21.3431 8.91627C20.4927 8.67307 19.6098 9.18263 19.395 10.0407L18.5377 13.4652L16.726 6.70375C16.5116 5.90355 15.6891 5.42868 14.8889 5.64309C14.0887 5.8575 13.6138 6.68001 13.8282 7.48021L13.3106 5.54835C13.0962 4.74816 12.2737 4.27328 11.4735 4.48769C10.6733 4.70211 10.1984 5.52461 10.4128 6.32481L10.6716 7.2905C10.4572 6.49043 9.63481 6.01564 8.83474 6.23001C8.03467 6.44439 7.55988 7.26676 7.77425 8.06683Z" fill="#FFC441"/>
<path d="M2.36691 11.0683C1.41665 12.1303 1.02487 13.7871 1.47033 15.4496C1.9158 17.1122 3.08353 18.3511 4.43746 18.7957" stroke="#FFC441" stroke-linecap="round"/>
<path d="M23.6175 5.37506C24.9714 5.81963 26.1391 7.05861 26.5846 8.72113C27.0301 10.3836 26.6383 12.0405 25.688 13.1025" stroke="#FFC441" stroke-linecap="round"/>
<path d="M3.85069 12.7422C3.37556 13.2731 3.17967 14.1016 3.4024 14.9328C3.62514 15.7641 4.209 16.3836 4.88597 16.6059" stroke="#FFC441" stroke-linecap="round"/>
<path d="M23.1693 7.56546C23.8463 7.78774 24.4302 8.40724 24.6529 9.23849C24.8756 10.0697 24.6797 10.8982 24.2046 11.4292" stroke="#FFC441" stroke-linecap="round"/>
<mask id="mask1_4769_12333" style="mask-type:alpha" maskUnits="userSpaceOnUse" x="5" y="4" width="18" height="22">
<path d="M7.77425 8.06683L8.42136 10.4819C8.20695 9.68168 7.38445 9.20681 6.58425 9.42122C5.78405 9.63564 5.30917 10.4581 5.52359 11.2583L7.83349 19.879C8.84483 23.6534 12.7244 25.8933 16.4988 24.8819C19.3577 24.1159 21.4377 21.6514 21.7123 18.7044L22.4709 10.5659C22.5408 9.81633 22.0669 9.12326 21.3431 8.91627C20.4927 8.67307 19.6098 9.18263 19.395 10.0407L18.5377 13.4652L16.726 6.70375C16.5116 5.90355 15.6891 5.42868 14.8889 5.64309C14.0887 5.8575 13.6138 6.68001 13.8282 7.48021L13.3106 5.54835C13.0962 4.74816 12.2737 4.27328 11.4735 4.48769C10.6733 4.70211 10.1984 5.52461 10.4128 6.32481L10.6716 7.2905C10.4572 6.49043 9.63481 6.01564 8.83474 6.23001C8.03467 6.44439 7.55988 7.26676 7.77425 8.06683Z" fill="#FFC441"/>
</mask>
<g mask="url(#mask1_4769_12333)">
<rect x="7.12744" y="5.65234" width="1" height="10" rx="0.5" transform="rotate(-15 7.12744 5.65234)" fill="#EAA200"/>
<rect x="10.0249" y="4.87598" width="1" height="10" rx="0.5" transform="rotate(-15 10.0249 4.87598)" fill="#EAA200"/>
<rect x="12.9229" y="4.09961" width="1" height="10" rx="0.5" transform="rotate(-15 12.9229 4.09961)" fill="#EAA200"/>
</g>
</g>
</svg>
